<svg xmlns="http://www.w3.org/2000/svg" viewBox="0 0 155 45.93"><defs><style>.cls-1{fill:#fff;}</style></defs><title>apple</title><g id="Camada_2" data-name="Camada 2"><g id="artwork"><path d="M10,45.92H8.76a18.33,18.33,0,0,1-2.45-.2,8,8,0,0,1-2.18-.65,7.28,7.28,0,0,1-1.84-1.22,6.48,6.48,0,0,1-2-3.67A14.06,14.06,0,0,1,0,37.92c0-.25,0-1.1,0-1.1V9.09S0,8.26,0,8A13.73,13.73,0,0,1,.24,5.77,6.46,6.46,0,0,1,2.29,2.09,7.49,7.49,0,0,1,4.13.86,8.42,8.42,0,0,1,6.3.21,19.72,19.72,0,0,1,8.77,0H145l1.2,0a17.45,17.45,0,0,1,2.44.19,8.27,8.27,0,0,1,2.2.66,7.31,7.31,0,0,1,1.83,1.22,6.57,6.57,0,0,1,1.34,1.68,6.79,6.79,0,0,1,.71,2A14.93,14.93,0,0,1,155,8V9.09c0,.45,0,.88,0,1.31V35.53c0,.43,0,.86,0,1.29s0,.75,0,1.11a13.26,13.26,0,0,1-.22,2.23,6.61,6.61,0,0,1-.71,2,6.53,6.53,0,0,1-1.33,1.67,7.1,7.1,0,0,1-1.84,1.22,8.05,8.05,0,0,1-2.2.66,18.07,18.07,0,0,1-2.45.2H10Z"/><path class="cls-1" d="M35.4,23.32a5.94,5.94,0,0,1,2.83-5,6.07,6.07,0,0,0-4.79-2.59c-2-.21-4,1.2-5,1.2s-2.63-1.18-4.33-1.15a6.4,6.4,0,0,0-5.37,3.28c-2.32,4-.59,9.93,1.63,13.18,1.12,1.59,2.42,3.37,4.12,3.3s2.29-1.06,4.3-1.06,2.57,1.06,4.31,1,2.91-1.6,4-3.2a13.11,13.11,0,0,0,1.83-3.72A5.74,5.74,0,0,1,35.4,23.32Z"/><path class="cls-1" d="M32.12,13.61a5.82,5.82,0,0,0,1.34-4.19,6,6,0,0,0-3.85,2,5.56,5.56,0,0,0-1.37,4A4.92,4.92,0,0,0,32.12,13.61Z"/><path class="cls-1" d="M56.45,31.53H50.77l-1.36,4H47l5.38-14.91h2.5l5.39,14.91H57.82Zm-5.09-1.86h4.5l-2.22-6.54h-.06Z"/><path class="cls-1" d="M71.89,30.13c0,3.38-1.81,5.55-4.54,5.55a3.72,3.72,0,0,1-3.42-1.9h0v5.38H61.65V24.69h2.16V26.5h0a3.84,3.84,0,0,1,3.46-1.92C70.07,24.58,71.89,26.76,71.89,30.13Zm-2.29,0c0-2.2-1.14-3.65-2.88-3.65S63.87,28,63.87,30.13s1.15,3.66,2.85,3.66S69.6,32.35,69.6,30.13Z"/><path class="cls-1" d="M83.85,30.13c0,3.38-1.8,5.55-4.53,5.55a3.7,3.7,0,0,1-3.42-1.9h-.05v5.38H73.61V24.69h2.16V26.5h0a3.84,3.84,0,0,1,3.46-1.92C82,24.58,83.85,26.76,83.85,30.13Zm-2.29,0c0-2.2-1.14-3.65-2.87-3.65S75.84,28,75.84,30.13s1.14,3.66,2.85,3.66S81.56,32.35,81.56,30.13Z"/><path class="cls-1" d="M91.76,31.41c.17,1.48,1.6,2.45,3.57,2.45s3.23-1,3.23-2.31c0-1.15-.82-1.85-2.75-2.32l-1.93-.47c-2.74-.66-4-1.94-4-4,0-2.58,2.24-4.34,5.43-4.34s5.31,1.76,5.38,4.34H98.43c-.14-1.49-1.37-2.39-3.17-2.39s-3,.91-3,2.23c0,1.05.78,1.67,2.7,2.15l1.65.4c3.06.73,4.33,2,4.33,4.14,0,2.79-2.23,4.53-5.76,4.53-3.31,0-5.54-1.7-5.68-4.4Z"/><path class="cls-1" d="M105.73,22.12v2.57h2.07v1.77h-2.07v6c0,.93.42,1.37,1.32,1.37a7.19,7.19,0,0,0,.74,0v1.75a6.27,6.27,0,0,1-1.24.11c-2.2,0-3.06-.83-3.06-2.94V26.46h-1.58V24.69h1.58V22.12Z"/><path class="cls-1" d="M109,30.13c0-3.42,2-5.57,5.15-5.57s5.16,2.15,5.16,5.57-2,5.57-5.16,5.57S109,33.56,109,30.13Zm8,0c0-2.35-1.07-3.73-2.88-3.73s-2.88,1.39-2.88,3.73,1.07,3.73,2.88,3.73S117,32.48,117,30.13Z"/><path class="cls-1" d="M121.15,24.69h2.13v1.85h0a2.58,2.58,0,0,1,2.61-2,3.63,3.63,0,0,1,.77.08v2.09a3.28,3.28,0,0,0-1-.13,2.25,2.25,0,0,0-2.32,2.5v6.44h-2.23Z"/><path class="cls-1" d="M137,32.37c-.3,2-2.22,3.33-4.68,3.33-3.16,0-5.12-2.12-5.12-5.52s2-5.62,5-5.62,4.9,2.07,4.9,5.36v.77h-7.68v.13a2.83,2.83,0,0,0,2.92,3.08,2.45,2.45,0,0,0,2.51-1.53Zm-7.54-3.24h5.44a2.62,2.62,0,0,0-2.67-2.76A2.75,2.75,0,0,0,129.45,29.13Z"/><path class="cls-1" d="M48.49,16.6V9.43h2.88c1.35,0,2.16.69,2.16,1.79a1.57,1.57,0,0,1-1.26,1.54v.08a1.69,1.69,0,0,1,1.61,1.73c0,1.26-.91,2-2.44,2Zm1.11-4.13h1.32c1,0,1.5-.37,1.5-1.05s-.48-1-1.31-1H49.6Zm1.61,3.18c1,0,1.54-.4,1.54-1.16s-.55-1.15-1.6-1.15H49.6v2.31Z"/><path class="cls-1" d="M55,15.07c0-1,.72-1.54,2-1.62l1.46-.08V12.9c0-.57-.38-.89-1.1-.89s-1,.22-1.13.6h-1c.1-.93,1-1.52,2.2-1.52s2.12.67,2.12,1.81v3.7h-1v-.76h-.09a1.81,1.81,0,0,1-1.62.84A1.63,1.63,0,0,1,55,15.07Zm3.47-.47v-.45l-1.32.09c-.74,0-1.08.3-1.08.78s.42.77,1,.77A1.27,1.27,0,0,0,58.5,14.6Z"/><path class="cls-1" d="M61.1,9.59a.69.69,0,1,1,.69.65A.65.65,0,0,1,61.1,9.59Zm.15,1.6h1.07V16.6H61.25Z"/><path class="cls-1" d="M66,14.68,64.8,16.6H63.63l1.79-2.7-1.81-2.71h1.25L66,13.1h.08l1.15-1.91h1.19l-1.78,2.67,1.8,2.74H67.24l-1.18-1.92Z"/><path class="cls-1" d="M69.4,15.07c0-1,.73-1.54,2-1.62l1.47-.08V12.9c0-.57-.38-.89-1.11-.89s-1,.22-1.13.6h-1c.11-.93,1-1.52,2.21-1.52s2.12.67,2.12,1.81v3.7h-1v-.76h-.08a1.81,1.81,0,0,1-1.63.84A1.63,1.63,0,0,1,69.4,15.07Zm3.48-.47v-.45l-1.32.09c-.75,0-1.08.3-1.08.78s.42.77,1,.77A1.28,1.28,0,0,0,72.88,14.6Z"/><path class="cls-1" d="M75.61,11.19h1V12h.08a1.46,1.46,0,0,1,1.46-.92,2.17,2.17,0,0,1,.47,0V12.2a2.8,2.8,0,0,0-.59-.07,1.27,1.27,0,0,0-1.38,1.27v3.2H75.61Z"/><path class="cls-1" d="M82.77,11.19h1v.86h.08a1.63,1.63,0,0,1,1.62-1,1.76,1.76,0,0,1,1.87,2v3.5H86.29V13.36c0-.86-.38-1.3-1.17-1.3a1.24,1.24,0,0,0-1.29,1.37V16.6H82.77Z"/><path class="cls-1" d="M88.7,15.07c0-1,.72-1.54,2-1.62l1.47-.08V12.9c0-.57-.38-.89-1.11-.89s-1,.22-1.13.6h-1c.11-.93,1-1.52,2.21-1.52s2.12.67,2.12,1.81v3.7h-1v-.76h-.08a1.83,1.83,0,0,1-1.63.84A1.63,1.63,0,0,1,88.7,15.07Zm3.48-.47v-.45l-1.32.09c-.75,0-1.09.3-1.09.78s.42.77,1,.77A1.28,1.28,0,0,0,92.18,14.6Z"/></g></g></svg>