<svg xmlns="http://www.w3.org/2000/svg" xmlns:xlink="http://www.w3.org/1999/xlink" viewBox="0 0 155 45.93"><defs><style>.cls-1,.cls-8,.cls-9{fill:#fff;}.cls-2{fill:url(#linear-gradient);}.cls-3{fill:url(#linear-gradient-2);}.cls-4{fill:url(#linear-gradient-3);}.cls-5{fill:url(#linear-gradient-4);}.cls-6{opacity:0.2;}.cls-6,.cls-7,.cls-8{isolation:isolate;}.cls-7{opacity:0.12;}.cls-8{opacity:0.25;}.cls-9{stroke:#fff;stroke-miterlimit:10;stroke-width:0.2px;}</style><linearGradient id="linear-gradient" x1="25.03" y1="177.93" x2="5.76" y2="158.66" gradientTransform="matrix(1, 0, 0, -1, 0, 187.93)" gradientUnits="userSpaceOnUse"><stop offset="0" stop-color="#00a0ff"/><stop offset="0.01" stop-color="#00a1ff"/><stop offset="0.26" stop-color="#00beff"/><stop offset="0.51" stop-color="#00d2ff"/><stop offset="0.76" stop-color="#00dfff"/><stop offset="1" stop-color="#00e3ff"/></linearGradient><linearGradient id="linear-gradient-2" x1="38.85" y1="164.96" x2="11.07" y2="164.96" gradientTransform="matrix(1, 0, 0, -1, 0, 187.93)" gradientUnits="userSpaceOnUse"><stop offset="0" stop-color="#ffe000"/><stop offset="0.41" stop-color="#ffbd00"/><stop offset="0.78" stop-color="orange"/><stop offset="1" stop-color="#ff9c00"/></linearGradient><linearGradient id="linear-gradient-3" x1="28.5" y1="162.33" x2="2.38" y2="136.2" gradientTransform="matrix(1, 0, 0, -1, 0, 187.93)" gradientUnits="userSpaceOnUse"><stop offset="0" stop-color="#ff3a44"/><stop offset="1" stop-color="#c31162"/></linearGradient><linearGradient id="linear-gradient-4" x1="8.38" y1="187.72" x2="20.05" y2="176.06" gradientTransform="matrix(1, 0, 0, -1, 0, 187.93)" gradientUnits="userSpaceOnUse"><stop offset="0" stop-color="#32a071"/><stop offset="0.07" stop-color="#2da771"/><stop offset="0.48" stop-color="#15cf74"/><stop offset="0.8" stop-color="#06e775"/><stop offset="1" stop-color="#00f076"/></linearGradient></defs><title>google</title><g id="Camada_2" data-name="Camada 2"><g id="artwork"><rect width="155" height="45.93" rx="5.74"/><path class="cls-1" d="M78.23,25a4.89,4.89,0,1,0,4.9,4.89A4.82,4.82,0,0,0,78.23,25Zm0,7.85a3,3,0,1,1,2.76-3A2.83,2.83,0,0,1,78.23,32.82ZM67.54,25a4.89,4.89,0,1,0,4.9,4.89A4.83,4.83,0,0,0,67.54,25Zm0,7.85a3,3,0,1,1,2.75-3A2.83,2.83,0,0,1,67.54,32.82ZM54.82,26.47v2.07h5a4.27,4.27,0,0,1-1.12,2.61,5.1,5.1,0,0,1-3.83,1.52,5.52,5.52,0,0,1,0-11,5.27,5.27,0,0,1,3.73,1.48L60,21.66a7.21,7.21,0,0,0-5.19-2.09,7.59,7.59,0,1,0,0,15.17,6.93,6.93,0,0,0,5.29-2.13,6.83,6.83,0,0,0,1.79-4.84,7.17,7.17,0,0,0-.11-1.3Zm52,1.61A4.55,4.55,0,0,0,102.66,25a4.64,4.64,0,0,0-4.61,4.89,4.78,4.78,0,0,0,4.85,4.88A4.87,4.87,0,0,0,107,32.58l-1.67-1.11a2.78,2.78,0,0,1-2.4,1.35,2.49,2.49,0,0,1-2.37-1.48l6.53-2.7Zm-6.66,1.63a2.67,2.67,0,0,1,2.55-2.85,1.89,1.89,0,0,1,1.81,1Zm-5.31,4.73H97V20.09H94.87Zm-3.51-8.37h-.08A3.35,3.35,0,0,0,88.71,25a4.89,4.89,0,0,0,0,9.77,3.32,3.32,0,0,0,2.57-1.11h.08v.7c0,1.87-1,2.87-2.61,2.87a2.69,2.69,0,0,1-2.46-1.74l-1.87.78a4.66,4.66,0,0,0,4.33,2.88c2.51,0,4.64-1.48,4.64-5.08V25.27h-2ZM88.9,32.82a3,3,0,0,1,0-5.92,2.75,2.75,0,0,1,2.6,3A2.72,2.72,0,0,1,88.9,32.82Zm28-12.73h-5.14V34.44h2.15V29h3a4.47,4.47,0,1,0,0-8.92Zm0,6.92h-3V22.09h3a2.46,2.46,0,1,1,0,4.92ZM130.18,25a4,4,0,0,0-3.82,2.2l1.9.79a2.32,2.32,0,0,1,4.21.79v.15a4.74,4.74,0,0,0-2.23-.55c-2.05,0-4.14,1.12-4.14,3.23a3.32,3.32,0,0,0,3.57,3.16,3,3,0,0,0,2.73-1.41h.07v1.11h2.07v-5.5C134.54,26.37,132.64,25,130.18,25Zm-.26,7.86c-.7,0-1.68-.35-1.68-1.21,0-1.11,1.22-1.54,2.28-1.54a3.86,3.86,0,0,1,1.95.48A2.59,2.59,0,0,1,129.92,32.81Zm12.16-7.55-2.46,6.22h-.07L137,25.26h-2.31l3.82,8.7-2.18,4.84h2.24l5.89-13.54Zm-19.3,9.18h2.14V20.09h-2.14Z"/><path class="cls-2" d="M12,8.65a2.35,2.35,0,0,0-.53,1.62V35.66A2.3,2.3,0,0,0,12,37.27l.09.09L26.29,23.13V22.8L12.07,8.57Z"/><path class="cls-3" d="M31,27.88l-4.74-4.75V22.8L31,18.05l.11.06,5.62,3.2c1.6.91,1.6,2.4,0,3.31l-5.62,3.19Z"/><path class="cls-4" d="M31.14,27.81,26.29,23,12,37.27a1.87,1.87,0,0,0,2.39.07l16.77-9.53"/><path class="cls-5" d="M31.14,18.11,14.37,8.58A1.88,1.88,0,0,0,12,8.65L26.29,23Z"/><path class="cls-6" d="M31,27.71,14.37,37.18a1.91,1.91,0,0,1-2.3,0h0l-.09.08h0l.09.09h0a1.91,1.91,0,0,0,2.3,0l16.77-9.53Z"/><path class="cls-7" d="M12,37.11a2.35,2.35,0,0,1-.53-1.62v.17A2.3,2.3,0,0,0,12,37.27l.09-.08Z"/><path class="cls-7" d="M36.76,24.45,31,27.71l.11.1,5.62-3.19A2,2,0,0,0,38,23h0A2.11,2.11,0,0,1,36.76,24.45Z"/><path class="cls-8" d="M14.37,8.75,36.76,21.47A2.15,2.15,0,0,1,38,23h0a2,2,0,0,0-1.2-1.65L14.37,8.58c-1.61-.91-2.92-.15-2.92,1.69v.17C11.45,8.6,12.76,7.84,14.37,8.75Z"/><path class="cls-9" d="M51.34,16V10h1.83a3,3,0,0,1,2.22.84A2.92,2.92,0,0,1,56.21,13a3,3,0,0,1-.82,2.17,3,3,0,0,1-2.22.83Zm.77-.73h1.06A2.09,2.09,0,0,0,55.43,13a2.09,2.09,0,0,0-2.26-2.26H52.11Z"/><path class="cls-9" d="M57.3,16V10h.77v6Z"/><path class="cls-9" d="M61.13,16.1a2.25,2.25,0,0,1-1.27-.43,2,2,0,0,1-.82-1.2l.7-.28a1.66,1.66,0,0,0,.52.83,1.28,1.28,0,0,0,.87.34A1.42,1.42,0,0,0,62,15.1a.86.86,0,0,0,.36-.72A.93.93,0,0,0,62,13.6a3.49,3.49,0,0,0-1.12-.5,3,3,0,0,1-1.21-.65,1.39,1.39,0,0,1-.41-1,1.49,1.49,0,0,1,.51-1.12,1.86,1.86,0,0,1,1.33-.48,2,2,0,0,1,1.24.38A1.7,1.7,0,0,1,63,11l-.7.3a1.08,1.08,0,0,0-.37-.53,1.34,1.34,0,0,0-1.53,0,.76.76,0,0,0-.31.62.7.7,0,0,0,.29.57,2.69,2.69,0,0,0,.85.41c.29.1.54.19.74.28a3.11,3.11,0,0,1,.6.35,1.46,1.46,0,0,1,.46.56,1.81,1.81,0,0,1,.16.76,1.66,1.66,0,0,1-.18.78,1.51,1.51,0,0,1-.48.55,2.5,2.5,0,0,1-.64.3A2.45,2.45,0,0,1,61.13,16.1Z"/><path class="cls-9" d="M65,16h-.77V10h2.05a1.88,1.88,0,0,1,1.32.51,1.76,1.76,0,0,1,0,2.56,1.92,1.92,0,0,1-1.32.5H65Zm0-3.16H66.3a1,1,0,0,0,.78-.33,1,1,0,0,0,0-1.44,1,1,0,0,0-.78-.33H65Z"/><path class="cls-9" d="M74,15.19a3.11,3.11,0,0,1-4.4,0A3.08,3.08,0,0,1,68.76,13a3.05,3.05,0,0,1,.88-2.22,3.11,3.11,0,0,1,4.4,0,3.23,3.23,0,0,1,0,4.45Zm-3.83-.5a2.25,2.25,0,0,0,1.63.67,2.22,2.22,0,0,0,1.63-.67A2.34,2.34,0,0,0,74.14,13a2.32,2.32,0,0,0-.67-1.72,2.18,2.18,0,0,0-1.63-.67,2.21,2.21,0,0,0-1.63.67A2.35,2.35,0,0,0,69.55,13,2.38,2.38,0,0,0,70.21,14.69Z"/><path class="cls-9" d="M76,16V10H77l2.91,4.67h0l0-1.16V10h.77v6h-.8l-3-4.89h0l0,1.16V16Z"/><path class="cls-9" d="M82,16V10h.77v6Zm.72-6.47h-.67l.43-1.07h.84Z"/><path class="cls-9" d="M85.64,16l-2.11-6h.85L86,14.83h0L87.77,10h.85l-2.18,6Z"/><path class="cls-9" d="M93,10.7H90.26v1.9h2.47v.72H90.26v1.91H93V16h-3.5V10H93Z"/><path class="cls-9" d="M94.2,16V10H95v5.27h2.6V16Z"/><path class="cls-9" d="M100.55,16V10h.94l2.92,4.67h0l0-1.16V10h.77v6h-.81l-3.05-4.89h0l0,1.16V16Z"/><path class="cls-9" d="M111.46,15.19a3.11,3.11,0,0,1-4.4,0,3.08,3.08,0,0,1-.88-2.23,3.05,3.05,0,0,1,.88-2.22,3.1,3.1,0,0,1,4.39,0,3,3,0,0,1,.89,2.22A3.08,3.08,0,0,1,111.46,15.19Zm-3.83-.5a2.32,2.32,0,0,0,3.26,0,2.38,2.38,0,0,0,.67-1.73,2.36,2.36,0,0,0-.67-1.72,2.32,2.32,0,0,0-3.26,0A2.36,2.36,0,0,0,107,13,2.38,2.38,0,0,0,107.63,14.69Z"/></g></g></svg>